<?xml version="1.0" encoding="UTF-8"?>
<svg version="1.1" xmlns="http://www.w3.org/2000/svg" width="40" height="40">
<path d="M0 0 C5.91654369 0.09355412 10.99510338 3.37694595 16.12109375 6.0390625 C17.16716797 6.56113281 18.21324219 7.08320312 19.29101562 7.62109375 C25.37795022 10.72003594 30.90058055 14.07753647 36.18359375 18.4140625 C35.86284955 21.42294856 35.65472235 22.97592321 33.3984375 25.07421875 C32.64691406 25.53699219 31.89539062 25.99976562 31.12109375 26.4765625 C30.31414063 26.97542969 29.5071875 27.47429688 28.67578125 27.98828125 C19.19181293 33.4140625 19.19181293 33.4140625 16.18359375 33.4140625 C16.18359375 30.7740625 16.18359375 28.1340625 16.18359375 25.4140625 C15.23484375 25.9090625 14.28609375 26.4040625 13.30859375 26.9140625 C10.18359375 28.4140625 10.18359375 28.4140625 8.18359375 28.4140625 C8.18359375 31.7140625 8.18359375 35.0140625 8.18359375 38.4140625 C3.95843427 40.52664224 1.80342067 40.67556214 -2.81640625 40.4140625 C-4.65917134 38.57129741 -3.94515036 35.98442491 -3.95535278 33.53271484 C-3.95332855 32.70980957 -3.95130432 31.8869043 -3.94921875 31.0390625 C-3.95017548 30.19939941 -3.9511322 29.35973633 -3.95211792 28.49462891 C-3.95279973 26.71581955 -3.95094542 24.93700773 -3.94677734 23.15820312 C-3.94142908 20.42572474 -3.9467223 17.69341074 -3.953125 14.9609375 C-3.95246422 13.2369788 -3.95118306 11.51302021 -3.94921875 9.7890625 C-3.95124298 8.96615723 -3.95326721 8.14325195 -3.95535278 7.29541016 C-3.92739679 0.57739814 -3.92739679 0.57739814 0 0 Z M8.18359375 16.4140625 C8.18359375 19.0540625 8.18359375 21.6940625 8.18359375 24.4140625 C12.26323656 23.11251244 12.26323656 23.11251244 16.18359375 21.4140625 C16.18359375 20.7540625 16.18359375 20.0940625 16.18359375 19.4140625 C12.37931883 17.2126759 12.37931883 17.2126759 8.18359375 16.4140625 Z " fill="#FDCD10" transform="translate(3.81640625,-0.4140625)"/>
<path d="M0 0 C3.96 0 7.92 0 12 0 C12 1.32 12 2.64 12 4 C13.1034375 3.34515625 14.206875 2.6903125 15.34375 2.015625 C20.41460918 -0.51980459 24.92944882 -0.46051502 30.5 -0.25 C31.87671875 -0.22292969 31.87671875 -0.22292969 33.28125 -0.1953125 C35.52196092 -0.14863102 37.76039799 -0.08318522 40 0 C38.3143016 3.70615555 36.81784036 5.03531798 33.25 7.0625 C32.35796875 7.57167969 31.4659375 8.08085937 30.546875 8.60546875 C22.5210084 13 22.5210084 13 20 13 C20 10.36 20 7.72 20 5 C19.05125 5.495 18.1025 5.99 17.125 6.5 C14 8 14 8 12 8 C12 11.3 12 14.6 12 18 C7.77484052 20.11257974 5.61982692 20.26149964 1 20 C0 19 0 19 -0.11352539 17.14233398 C-0.10828857 16.35157471 -0.10305176 15.56081543 -0.09765625 14.74609375 C-0.09443359 13.89208984 -0.09121094 13.03808594 -0.08789062 12.15820312 C-0.07951172 11.26037109 -0.07113281 10.36253906 -0.0625 9.4375 C-0.05798828 8.53580078 -0.05347656 7.63410156 -0.04882812 6.70507812 C-0.03700244 4.47002411 -0.01906638 2.23500398 0 0 Z " fill="#1198B6" transform="translate(0,20)"/>
<path d="M0 0 C7.60263597 0.53351831 14.58625642 2.40069358 21.91503906 4.43408203 C25.57532904 5.42758931 29.25629702 6.33763555 32.9375 7.25 C33.64205322 7.4250708 34.34660645 7.6001416 35.07250977 7.78051758 C36.71474869 8.18805208 38.35733402 8.59419027 40 9 C40 9.66 40 10.32 40 11 C36.83365364 11.11760715 33.66787926 11.18771024 30.5 11.25 C29.1696875 11.30027344 29.1696875 11.30027344 27.8125 11.3515625 C21.41817899 11.44559663 17.50580662 10.26746467 12 7 C12 8.32 12 9.64 12 11 C8.04 11 4.08 11 0 11 C0 7.37 0 3.74 0 0 Z " fill="#FC9C37" transform="translate(0,9)"/>
<path d="M0 0 C0.33 1.32 0.66 2.64 1 4 C2.1034375 3.34515625 3.206875 2.6903125 4.34375 2.015625 C9.41460918 -0.51980459 13.92944882 -0.46051502 19.5 -0.25 C20.87671875 -0.22292969 20.87671875 -0.22292969 22.28125 -0.1953125 C24.52196092 -0.14863102 26.76039799 -0.08318522 29 0 C27.3143016 3.70615555 25.81784036 5.03531798 22.25 7.0625 C21.35796875 7.57167969 20.4659375 8.08085937 19.546875 8.60546875 C11.5210084 13 11.5210084 13 9 13 C9 10.36 9 7.72 9 5 C8.071875 5.37125 7.14375 5.7425 6.1875 6.125 C5.135625 6.41375 4.08375 6.7025 3 7 C2.01 6.34 1.02 5.68 0 5 C-0.1875 2.375 -0.1875 2.375 0 0 Z " fill="#1697B4" transform="translate(11,20)"/>
<path d="M0 0 C0 2.97 0 5.94 0 9 C-4.22515948 11.11257974 -6.38017308 11.26149964 -11 11 C-12 10 -12 10 -12.0625 6.4375 C-12.041875 5.303125 -12.02125 4.16875 -12 3 C-10.56445975 2.49440092 -9.1264798 1.9957251 -7.6875 1.5 C-6.88699219 1.2215625 -6.08648437 0.943125 -5.26171875 0.65625 C-3 0 -3 0 0 0 Z " fill="#156388" transform="translate(12,29)"/>
<path d="M0 0 C-1.39458489 4.18375468 -3.52903739 4.66263889 -7.375 6.6875 C-8.53773437 7.31011719 -9.70046875 7.93273437 -10.8984375 8.57421875 C-14 10 -14 10 -17 10 C-17 8.02 -17 6.04 -17 4 C-14.5424552 3.33030409 -12.08405076 2.6641232 -9.625 2 C-8.57699219 1.71382812 -8.57699219 1.71382812 -7.5078125 1.421875 C-2.2265625 0 -2.2265625 0 0 0 Z " fill="#1B678B" transform="translate(38,22)"/>
<path d="M0 0 C0.33 1.32 0.66 2.64 1 4 C1.928125 3.62875 2.85625 3.2575 3.8125 2.875 C5.3903125 2.441875 5.3903125 2.441875 7 2 C10 4 10 4 10.51171875 6.1640625 C10.59873047 7.38222656 10.59873047 7.38222656 10.6875 8.625 C10.78611328 9.85089844 10.78611328 9.85089844 10.88671875 11.1015625 C10.92410156 11.72804688 10.96148437 12.35453125 11 13 C10.34 13 9.68 13 9 13 C9 10.36 9 7.72 9 5 C8.071875 5.37125 7.14375 5.7425 6.1875 6.125 C5.135625 6.41375 4.08375 6.7025 3 7 C2.01 6.34 1.02 5.68 0 5 C-0.1875 2.375 -0.1875 2.375 0 0 Z " fill="#54ACBF" transform="translate(11,20)"/>
</svg>
