<?xml version="1.0" ?><svg viewBox="0 0 40 40" xmlns="http://www.w3.org/2000/svg"><g id="Soundcloud"><path d="M6.63,22.82a.74.74,0,0,1,0,.21l-.17,1.3a.15.15,0,0,1-.29,0L6,23a.74.74,0,0,1,0-.21l.19-1.51a.12.12,0,0,1,.24,0Zm.84-2.49a.1.1,0,0,0-.19,0L7,22.83V23l.27,2.27a.13.13,0,0,0,.25,0L7.77,23v-.19Zm1.08-.46a.12.12,0,0,0-.23,0L8,22.77a1.61,1.61,0,0,0,0,.31l.26,2.62a.14.14,0,0,0,.28,0l.26-2.62a1.61,1.61,0,0,0,0-.31Zm1.17-.13a.15.15,0,0,0-.3,0l-.24,3a1.31,1.31,0,0,0,0,.28l.24,2.73a.15.15,0,0,0,.3,0L10,23.06a2.53,2.53,0,0,0,0-.28Zm1.15.14a.16.16,0,0,0-.32,0l-.24,2.91v.27l.24,2.75a.16.16,0,0,0,.32,0l.23-2.75a1.22,1.22,0,0,0,0-.27ZM12,18.16a.19.19,0,0,0-.38,0l-.22,4.67a1.21,1.21,0,0,0,0,.19l.21,2.8a.19.19,0,0,0,.38,0l.21-2.8v-.19Zm1.05-1a.19.19,0,0,0-.37,0l-.22,5.65V23l.22,2.81a.19.19,0,0,0,.37,0L13.3,23a1.21,1.21,0,0,0,0-.19Zm1.25-.48a.22.22,0,0,0-.43,0l-.19,6.15V23l.19,2.82a.22.22,0,0,0,.43,0L14.52,23a.76.76,0,0,0,0-.15Zm1.17-.2a.25.25,0,0,0-.5,0l-.23,6.33a1.21,1.21,0,0,0,0,.19L15,25.86a.25.25,0,0,0,.5,0L15.74,23a1.21,1.21,0,0,0,0-.19Zm1.18.12a.29.29,0,0,0-.58,0l-.2,6.22a1,1,0,0,0,0,.17l.19,2.81a.29.29,0,0,0,.58,0L16.88,23a.49.49,0,0,0,0-.17Zm1.22.25a.29.29,0,0,0-.58,0l-.2,6a1,1,0,0,0,0,.17l.19,2.8a.29.29,0,0,0,.58,0L18.1,23a1,1,0,0,0,0-.17Zm2.33-1.75a.35.35,0,0,0-.69,0l-.14,7.75V23l.14,2.71a.35.35,0,0,0,.69,0L20.38,23v-.11Zm-1.19.63a.3.3,0,0,0-.59,0l-.19,7.1V23l.19,2.79a.3.3,0,0,0,.59,0L19.24,23v-.15Zm2,10.3h9.46a3.41,3.41,0,1,0,.06-6.82,3.51,3.51,0,0,0-1.17.2.16.16,0,0,1-.21-.14,6.11,6.11,0,0,0-8.34-4.95.34.34,0,0,0-.21.3v11A.4.4,0,0,0,21.07,26.05Z"/></g></svg>